<?xml version="1.0"?>
<svg width="480" height="480" xmlns="http://www.w3.org/2000/svg" xmlns:svg="http://www.w3.org/2000/svg" xmlns:xlink="http://www.w3.org/1999/xlink">
 <!-- Created with SVG-edit - https://github.com/SVG-Edit/svgedit-->
 <defs>
  <symbol height="64" id="svg_1" viewBox="0 0 32 32" width="64" xmlns="http://www.w3.org/2000/svg">
   <path d="m32,24.795c-1.164,0.296 -1.884,0.013 -2.53,-0.957l-4.594,-6.356l-0.664,-0.88l-5.365,7.257c-0.613,0.873 -1.256,1.253 -2.4,0.944l6.87,-9.222l-6.396,-8.33c1.1,-0.214 1.86,-0.105 2.535,0.88l4.765,6.435l4.8,-6.4c0.615,-0.873 1.276,-1.205 2.38,-0.883l-2.48,3.288l-3.36,4.375c-0.4,0.5 -0.345,0.842 0.023,1.325l6.416,8.524zm-31.992,-9.368l0.562,-2.764c1.53,-5.47 7.8,-7.743 12.124,-4.363c2.527,1.988 3.155,4.8 3.03,7.95l-14.244,0c-0.214,5.67 3.867,9.092 9.07,7.346c1.825,-0.613 2.9,-2.042 3.438,-3.83c0.273,-0.896 0.725,-1.036 1.567,-0.78c-0.43,2.236 -1.4,4.104 -3.45,5.273c-3.063,1.75 -7.435,1.184 -9.735,-1.248c-1.37,-1.411 -1.936,-3.199 -2.19,-5.111c-0.04,-0.316 -0.12,-0.617 -0.18,-0.92q0.008,-0.776 0.008,-1.552l0,-0.001zm1.498,-0.38l12.872,0c-0.084,-4.1 -2.637,-7.012 -6.126,-7.037c-3.83,-0.03 -6.58,2.813 -6.746,7.037z"/>
  </symbol>
 </defs>
 <g class="layer">
  <title>Layer 1</title>
  <use id="svg_2" transform="matrix(5 0 0 5 0 0)" x="15" xlink:href="#svg_1" y="17.2"/>
  <g id="svg_3"/>
 </g>
</svg>